<svg width="197" height="204" viewBox="0 0 197 204" fill="none" xmlns="http://www.w3.org/2000/svg">
<path d="M142.153 81.4834C167.312 81.4837 196.245 103.372 196.245 140.608C196.245 187.153 157.249 203.508 142.153 203.508H72.9631C46.66 203.508 20.1282 187.657 20.1281 149.414V120.48H19.4992C8.73061 120.48 0.000485359 111.751 0.000198364 100.982C0.000198364 90.2137 8.73043 81.4835 19.4992 81.4834H142.153ZM59.1232 146.92C59.5426 153.21 63.9033 165.79 77.9924 165.79H137.117C143.827 165.371 157.245 160.003 157.245 141.889C157.245 126.794 143.407 121.761 137.117 121.761H59.1232V146.92ZM20.1252 91.545C14.5672 91.5451 10.0617 96.0514 10.0617 101.609C10.0618 107.167 14.5673 111.673 20.1252 111.673C25.6832 111.673 30.1895 107.167 30.1897 101.609C30.1897 96.0513 25.6833 91.545 20.1252 91.545Z" fill="white" fill-opacity="0.8"/>
<path d="M122.025 0.00012207C140.056 2.51618 176.117 17.8635 176.117 59.1251C176.117 67.0923 174.356 84.7873 167.312 91.8322C160.183 101.477 140.39 120.766 118.25 120.766H20.128C9.01204 120.766 0.000196698 111.755 9.91836e-05 100.639C-3.07618e-05 90.2176 8.44807 81.769 18.8692 81.7687H20.128V54.0929C21.8055 36.0618 35.2239 0.000424826 75.4786 0.00012207H122.025ZM20.1251 91.5763C14.5673 91.5765 10.0619 96.082 10.0616 101.64C10.0616 107.198 14.5671 111.704 20.1251 111.704C25.6832 111.704 30.1896 107.198 30.1896 101.64C30.1893 96.0819 25.6831 91.5763 20.1251 91.5763ZM72.8605 38.7218C62.8936 38.7219 57.8616 47.5256 57.8614 57.0197V81.4171H119.857C130.824 81.4177 135.856 75.2005 135.856 60.5626C135.856 42.9966 129.566 38.7218 119.857 38.7218H72.8605Z" fill="white" fill-opacity="0.8"/>
</svg>
